# xmcd CD database file
#
# Track frame offsets:
#	150
#	13087
#	27430
#	40360
#	52872
#	66137
#	79557
#	93790
#	106927
#	121330
#	134257
#	147855
#
# Disc length: 2156 seconds
#
# Revision: 0
# Processed by: cddbd v1.4PL0 Copyright (c) Steve Scherf et al.
# Submitted via: CDex 1.51
#
DISCID=95086a0c
DTITLE=Cachao - La Leyenda
DYEAR=1994
DGENRE=Jazz
TTITLE0=Canta Contrabajo
TTITLE1=Tata Y Cuchin
TTITLE2=Avance Juvenil
TTITLE3=Nando Padron
TTITLE4=Panchitin
TTITLE5=Julito Y Su Flauta
TTITLE6=Social Club Buenavista
TTITLE7=El Principe Nino
TTITLE8=America Club
TTITLE9=Las Ninfas
TTITLE10=Ahora Si
TTITLE11=Centro San Agustin
EXTD=YEAR: 1994
EXTT0=
EXTT1=
EXTT2=
EXTT3=
EXTT4=
EXTT5=
EXTT6=
EXTT7=
EXTT8=
EXTT9=
EXTT10=
EXTT11=
PLAYORDER=
